<svg width="18" height="18" viewBox="0 0 18 18" fill="none" xmlns="http://www.w3.org/2000/svg">
<path d="M6.45117 2.8125C5.94727 2.8125 5.47852 2.90625 5.04492 3.09375C4.59961 3.29297 4.21289 3.55664 3.88477 3.88477C3.55664 4.21289 3.29297 4.59961 3.09375 5.04492C2.90625 5.47852 2.8125 5.94727 2.8125 6.45117V11.5488C2.8125 12.0527 2.90625 12.5215 3.09375 12.9551C3.29297 13.4004 3.55664 13.7871 3.88477 14.1152C4.21289 14.4434 4.59961 14.707 5.04492 14.9062C5.47852 15.0938 5.94727 15.1875 6.45117 15.1875H11.5488C12.0527 15.1875 12.5215 15.0938 12.9551 14.9062C13.4004 14.707 13.7871 14.4434 14.1152 14.1152C14.4434 13.7871 14.707 13.4004 14.9062 12.9551C15.0938 12.5215 15.1875 12.0527 15.1875 11.5488V6.45117C15.1875 5.94727 15.0938 5.47852 14.9062 5.04492C14.707 4.59961 14.4434 4.21289 14.1152 3.88477C13.7871 3.55664 13.4004 3.29297 12.9551 3.09375C12.5215 2.90625 12.0527 2.8125 11.5488 2.8125H6.45117ZM6.45117 3.9375H11.5488C12.2402 3.9375 12.832 4.18359 13.3242 4.67578C13.8164 5.16797 14.0625 5.75977 14.0625 6.45117V11.5488C14.0625 12.2402 13.8164 12.832 13.3242 13.3242C12.832 13.8164 12.2402 14.0625 11.5488 14.0625H6.45117C5.75977 14.0625 5.16797 13.8164 4.67578 13.3242C4.18359 12.832 3.9375 12.2402 3.9375 11.5488V6.45117C3.9375 5.75977 4.18359 5.16797 4.67578 4.67578C5.16797 4.18359 5.75977 3.9375 6.45117 3.9375ZM12.3223 5.16797C12.1816 5.16797 12.0615 5.21777 11.9619 5.31738C11.8623 5.41699 11.8125 5.53711 11.8125 5.67773C11.8125 5.81836 11.8623 5.93848 11.9619 6.03809C12.0615 6.1377 12.1816 6.1875 12.3223 6.1875C12.4629 6.1875 12.583 6.1377 12.6826 6.03809C12.7822 5.93848 12.832 5.81836 12.832 5.67773C12.832 5.53711 12.7822 5.41699 12.6826 5.31738C12.583 5.21777 12.4629 5.16797 12.3223 5.16797ZM9 5.625C8.07422 5.625 7.28027 5.95605 6.61816 6.61816C5.95605 7.28027 5.625 8.07422 5.625 9C5.625 9.92578 5.95605 10.7197 6.61816 11.3818C7.28027 12.0439 8.07422 12.375 9 12.375C9.92578 12.375 10.7197 12.0439 11.3818 11.3818C12.0439 10.7197 12.375 9.92578 12.375 9C12.375 8.07422 12.0439 7.28027 11.3818 6.61816C10.7197 5.95605 9.92578 5.625 9 5.625ZM9 6.75C9.62109 6.75 10.1514 6.96973 10.5908 7.40918C11.0303 7.84863 11.25 8.37891 11.25 9C11.25 9.62109 11.0303 10.1514 10.5908 10.5908C10.1514 11.0303 9.62109 11.25 9 11.25C8.37891 11.25 7.84863 11.0303 7.40918 10.5908C6.96973 10.1514 6.75 9.62109 6.75 9C6.75 8.37891 6.96973 7.84863 7.40918 7.40918C7.84863 6.96973 8.37891 6.75 9 6.75Z" fill="white"/>
</svg>
